<svg width="16" height="16" viewBox="0 0 16 16" fill="none" xmlns="http://www.w3.org/2000/svg">
<path fill-rule="evenodd" clip-rule="evenodd" d="M10.146 4.64601C10.1925 4.59945 10.2477 4.5625 10.3084 4.5373C10.3692 4.51209 10.4343 4.49911 10.5 4.49911C10.5658 4.49911 10.6309 4.51209 10.6917 4.5373C10.7524 4.5625 10.8076 4.59945 10.854 4.64601L13.854 7.64601C13.9006 7.69245 13.9375 7.74763 13.9628 7.80837C13.988 7.86912 14.0009 7.93424 14.0009 8.00001C14.0009 8.06578 13.988 8.1309 13.9628 8.19164C13.9375 8.25239 13.9006 8.30756 13.854 8.35401L10.854 11.354C10.7602 11.4479 10.6328 11.5006 10.5 11.5006C10.3673 11.5006 10.2399 11.4479 10.146 11.354C10.0522 11.2601 9.99941 11.1328 9.99941 11C9.99941 10.8672 10.0522 10.7399 10.146 10.646L12.793 8.00001L10.146 5.35401C10.0995 5.30756 10.0625 5.25239 10.0373 5.19164C10.0121 5.1309 9.99915 5.06578 9.99915 5.00001C9.99915 4.93424 10.0121 4.86912 10.0373 4.80837C10.0625 4.74763 10.0995 4.69245 10.146 4.64601Z" fill="black"/>
<path fill-rule="evenodd" clip-rule="evenodd" d="M2 8C2 7.86739 2.05268 7.74021 2.14645 7.64645C2.24021 7.55268 2.36739 7.5 2.5 7.5H13C13.1326 7.5 13.2598 7.55268 13.3536 7.64645C13.4473 7.74021 13.5 7.86739 13.5 8C13.5 8.13261 13.4473 8.25979 13.3536 8.35355C13.2598 8.44732 13.1326 8.5 13 8.5H2.5C2.36739 8.5 2.24021 8.44732 2.14645 8.35355C2.05268 8.25979 2 8.13261 2 8Z" fill="black"/>
</svg>
