<svg width="25" height="25" viewBox="0 0 25 25" fill="none" xmlns="http://www.w3.org/2000/svg">
<path d="M22.4999 5.573C22.4997 5.15275 22.3365 4.74895 22.0448 4.44647C21.753 4.144 21.3554 3.9664 20.9354 3.951V3.948H4.21192V3.9525C4.18292 3.951 4.15417 3.948 4.12492 3.948C3.78885 3.94822 3.46112 4.05263 3.18685 4.24685C2.91259 4.44107 2.70529 4.71555 2.59351 5.03248C2.48172 5.34941 2.47095 5.6932 2.56267 6.01651C2.6544 6.33982 2.8441 6.62674 3.10567 6.83775L10.6407 14.3725L10.6404 19.0222V19.0607H10.6442C10.6505 19.2041 10.6931 19.3436 10.768 19.466C10.8429 19.5884 10.9476 19.6898 11.0724 19.7607L11.0702 19.7647L13.0382 20.901C13.0547 20.9125 13.0729 20.9207 13.0902 20.931L13.0972 20.935V20.9347C13.2227 21.0072 13.3667 21.052 13.5222 21.052C13.6343 21.052 13.7454 21.03 13.849 20.9871C13.9526 20.9442 14.0468 20.8813 14.1261 20.8019C14.2054 20.7226 14.2683 20.6285 14.3112 20.5249C14.3541 20.4212 14.3762 20.3102 14.3762 20.198C14.3762 20.1755 14.3712 20.1542 14.3697 20.1322H14.3762V14.3795L21.9804 6.7755L21.9729 6.768C22.139 6.61637 22.2716 6.43179 22.3623 6.22604C22.4531 6.02028 22.4999 5.79787 22.4999 5.573ZM8.06217 7.198H8.06567L8.06592 7.20175L8.06217 7.198Z" fill="#01497C"/>
</svg>
