<svg width="14" height="16" viewBox="0 0 14 16" fill="none" xmlns="http://www.w3.org/2000/svg">
<path d="M12.1119 8.33905C12.3416 7.99217 12.4688 7.56717 12.4688 7.12499C12.4688 6.42342 12.1256 5.75936 11.5732 5.38905C11.431 5.29373 11.2691 5.24356 11.1043 5.24374H7.82578L7.90781 3.32342C7.92695 2.85936 7.7834 2.41874 7.50449 2.0828C7.36762 1.91722 7.20248 1.78548 7.0193 1.69571C6.83611 1.60595 6.63877 1.56008 6.43945 1.56092C5.72852 1.56092 5.09961 2.1078 4.91094 2.89061L3.73652 7.74999H1.96875C1.72676 7.74999 1.53125 7.97342 1.53125 8.24999V13.9375C1.53125 14.214 1.72676 14.4375 1.96875 14.4375H10.1896C10.3154 14.4375 10.4385 14.4094 10.552 14.3531C11.2027 14.0359 11.6225 13.3094 11.6225 12.5031C11.6225 12.3062 11.5979 12.1125 11.5486 11.925C11.7783 11.5781 11.9055 11.1531 11.9055 10.7109C11.9055 10.514 11.8809 10.3203 11.8316 10.1328C12.0613 9.78592 12.1885 9.36092 12.1885 8.91874C12.1857 8.72186 12.1611 8.52655 12.1119 8.33905ZM2.51562 13.3125V8.87499H3.62305V13.3125H2.51562ZM11.2164 7.79686L10.917 8.09374L11.107 8.49061C11.1696 8.62135 11.2021 8.76814 11.2014 8.91717C11.2014 9.17499 11.1029 9.4203 10.9334 9.58905L10.634 9.88592L10.824 10.2828C10.8866 10.4135 10.9191 10.5603 10.9184 10.7094C10.9184 10.9672 10.8199 11.2125 10.6504 11.3812L10.351 11.6781L10.541 12.075C10.6036 12.2057 10.6361 12.3525 10.6354 12.5015C10.6354 12.8515 10.4549 13.1672 10.176 13.3109H4.49805V8.82499L5.8584 3.19217C5.89348 3.0478 5.96878 2.92043 6.07289 2.82936C6.177 2.73829 6.30425 2.68848 6.43535 2.68749C6.53926 2.68749 6.6418 2.72186 6.72383 2.79217C6.85918 2.9078 6.93164 3.0828 6.92344 3.26874L6.79219 6.36874H11.0906C11.334 6.53905 11.4844 6.82655 11.4844 7.12499C11.4844 7.3828 11.3859 7.62655 11.2164 7.79686Z" fill="#2A9D8F"/>
</svg>
