<svg width="9" height="13" viewBox="0 0 9 13" fill="none" xmlns="http://www.w3.org/2000/svg">
<g clip-path="url(#clip0)">
<path d="M4.03753 12.7377C0.632109 7.38946 0 6.84056 0 4.875C0 2.1826 2.01471 0 4.5 0C6.98529 0 9 2.1826 9 4.875C9 6.84056 8.36789 7.38946 4.96247 12.7377C4.73899 13.0874 4.26098 13.0874 4.03753 12.7377ZM4.5 6.90625C5.53554 6.90625 6.375 5.99683 6.375 4.875C6.375 3.75317 5.53554 2.84375 4.5 2.84375C3.46446 2.84375 2.625 3.75317 2.625 4.875C2.625 5.99683 3.46446 6.90625 4.5 6.90625Z" fill="white"/>
</g>
<defs>
<clipPath id="clip0">
<rect width="9" height="13" fill="white"/>
</clipPath>
</defs>
</svg>
