<svg width="11" height="11" viewBox="0 0 11 11" fill="none" xmlns="http://www.w3.org/2000/svg">
<path d="M10.243 1.92246L8.89092 0.57168C8.79554 0.475885 8.68218 0.399879 8.55734 0.348027C8.43251 0.296175 8.29865 0.269499 8.16348 0.269531C7.88799 0.269531 7.629 0.377441 7.43477 0.57168L5.97988 2.02656C5.88409 2.12194 5.80808 2.2353 5.75623 2.36014C5.70438 2.48497 5.6777 2.61883 5.67774 2.754C5.67774 3.02949 5.78565 3.28848 5.97988 3.48271L7.04375 4.54658C6.79472 5.09548 6.4485 5.59482 6.02178 6.02051C5.59613 6.44826 5.09683 6.79575 4.54785 7.04629L3.48399 5.98242C3.38861 5.88663 3.27525 5.81062 3.15041 5.75877C3.02557 5.70692 2.89172 5.68024 2.75654 5.68027C2.48106 5.68027 2.22207 5.78818 2.02783 5.98242L0.57168 7.43604C0.475768 7.53159 0.399697 7.64516 0.347842 7.77022C0.295988 7.89528 0.269374 8.02936 0.269532 8.16475C0.269532 8.44024 0.377442 8.69922 0.57168 8.89346L1.92119 10.243C2.23096 10.554 2.65879 10.7305 3.09805 10.7305C3.19072 10.7305 3.27959 10.7229 3.36719 10.7076C5.07852 10.4258 6.77588 9.51553 8.1457 8.14697C9.51426 6.77969 10.4232 5.08359 10.7089 3.36719C10.7952 2.84287 10.6213 2.30332 10.243 1.92246Z" fill="white"/>
</svg>
