<svg width="22" height="22" viewBox="0 0 22 22" fill="none" xmlns="http://www.w3.org/2000/svg">
<path d="M19.0337 11.4662C19.3947 10.9893 19.5945 10.4049 19.5945 9.79687C19.5945 8.83222 19.0552 7.91914 18.1873 7.40996C17.9638 7.27889 17.7094 7.20991 17.4503 7.21015H12.2984L12.4273 4.56972C12.4574 3.93164 12.2318 3.32578 11.7935 2.86386C11.5784 2.63619 11.3189 2.45505 11.0311 2.33162C10.7432 2.2082 10.4331 2.14512 10.1199 2.14629C9.00269 2.14629 8.0144 2.89824 7.71792 3.97461L5.87241 10.6562H5.86597V19.8516H16.013C16.2107 19.8516 16.4041 19.8129 16.5824 19.7355C17.605 19.2994 18.2646 18.3004 18.2646 17.1918C18.2646 16.9211 18.2259 16.6547 18.1486 16.3969C18.5095 15.9199 18.7093 15.3355 18.7093 14.7275C18.7093 14.4568 18.6707 14.1904 18.5933 13.9326C18.9542 13.4557 19.1541 12.8713 19.1541 12.2633C19.1498 11.9926 19.1111 11.724 19.0337 11.4662ZM2.40698 11.3437V19.1641C2.40698 19.5443 2.71421 19.8516 3.09448 19.8516H4.49097V10.6562H3.09448C2.71421 10.6562 2.40698 10.9635 2.40698 11.3437Z" fill="#01497C"/>
</svg>
